<?xml version="1.0" encoding="utf-8"?>
<!-- Generator: Adobe Illustrator 24.1.1, SVG Export Plug-In . SVG Version: 6.00 Build 0)  -->
<svg version="1.1" id="Capa_1" xmlns="http://www.w3.org/2000/svg" xmlns:xlink="http://www.w3.org/1999/xlink" x="0px" y="0px"
	 viewBox="0 0 397.1 148.9" style="enable-background:new 0 0 397.1 148.9;" xml:space="preserve">
<style type="text/css">
	.st0{fill-rule:evenodd;clip-rule:evenodd;}
</style>
<g>
	<path class="st0" d="M76.4,77.2c0,10.1-3.6,18.8-10.9,26c-7.3,7.2-16,10.8-26,10.8c-10.2,0-18.9-3.6-26.1-10.8
		C6.2,96,2.6,87.3,2.6,77.2V18.3h13.9V50c6.8-6.5,14.9-9.8,24.2-9.8c9.9,0,18.3,3.7,25.3,11C72.9,58.6,76.4,67.3,76.4,77.2z
		 M62.5,77.2c0-6.3-2.3-11.7-6.8-16.2c-4.6-4.6-10-6.8-16.2-6.8c-6.3,0-11.7,2.3-16.3,6.8c-4.5,4.5-6.8,9.9-6.8,16.2
		c0,6.4,2.3,11.8,6.8,16.3s9.9,6.8,16.3,6.8c6.3,0,11.7-2.3,16.2-6.8C60.2,88.9,62.5,83.5,62.5,77.2z M83.7,112.8h13.9V41.4H83.7
		V112.8z M179.7,104.9c-0.8,9.1-3.1,17.7-10.1,24.9c-8,8.4-19.7,13.1-31.3,11.6c-1.2-0.2-2.4-0.4-3.5-0.7c-3.4-0.8-6.6-2.1-9.6-3.8
		c-2.8-1.6-5.4-3.4-7.6-5.6c-2.2-2.1-4.2-4.6-6-7.3l11.7-7.6c5,7.6,11.6,11.4,19.8,11.4c13.4,0,22-10.5,23-23.4
		c-6.9,6.4-14.9,9.5-24.1,9.5c-9.9,0-18.4-3.6-25.3-10.9c-6.9-7.2-10.4-15.8-10.4-25.9s3.6-18.8,10.9-26c7.4-7.3,16.1-10.9,26-10.9
		c10.1,0,18.8,3.6,26,10.9c7.3,7.3,10.9,15.9,10.9,26v16.7C180,97.6,180,101.3,179.7,104.9z M166.2,77.2c0-6.3-2.3-11.7-6.8-16.2
		c-4.6-4.6-10-6.8-16.3-6.8s-11.7,2.3-16.3,6.8c-4.5,4.5-6.8,9.9-6.8,16.2c0,6.4,2.3,11.8,6.8,16.3s9.9,6.8,16.3,6.8
		C155.6,100.2,166.2,89.7,166.2,77.2z M259.9,77.2c0,10.1-3.6,18.8-10.9,26c-7.3,7.2-15.9,10.8-26,10.8c-10.2,0-18.9-3.6-26.1-10.8
		c-7.2-7.2-10.8-15.9-10.8-26V18.3H200V50c6.8-6.5,14.9-9.8,24.2-9.8c9.9,0,18.3,3.7,25.3,11C256.4,58.6,259.9,67.3,259.9,77.2z
		 M246.1,77.2c0-6.3-2.3-11.7-6.8-16.2c-4.6-4.6-10-6.8-16.2-6.8c-6.3,0-11.7,2.3-16.3,6.8c-4.5,4.5-6.8,9.9-6.8,16.2
		c0,6.4,2.3,11.8,6.8,16.3s9.9,6.8,16.3,6.8c6.3,0,11.7-2.3,16.2-6.8C243.8,88.9,246.1,83.5,246.1,77.2z M337.9,77.2
		c0,10.1-3.6,18.8-10.9,26S311,114,300.9,114c-10.2,0-18.9-3.6-26.1-10.8c-7.2-7.2-10.8-15.9-10.8-26s3.6-18.8,10.8-26
		c7.3-7.3,16-10.9,26.1-10.9s18.8,3.6,26.1,10.9C334.2,58.4,337.9,67.1,337.9,77.2z M324,77.2c0-6.3-2.3-11.7-6.8-16.2
		c-4.6-4.6-10-6.8-16.3-6.8s-11.7,2.3-16.3,6.8c-4.5,4.5-6.8,9.9-6.8,16.2c0,6.4,2.3,11.8,6.8,16.3s9.9,6.8,16.3,6.8
		s11.8-2.3,16.3-6.8C321.7,88.9,324,83.5,324,77.2z M364.7,89.9l-15.1,22.9h-16.4l23.2-35.6l-23.2-35.8h16.4l15.1,23.1l15-23.1H396
		l-23.2,35.8l23.2,35.6h-16.4L364.7,89.9z M83.7,32.6h13.9V18.9H83.7V32.6z"/>
</g>
</svg>
